<svg xmlns="http://www.w3.org/2000/svg" width="74" height="74" viewBox="0 0 74 74">
  <g id="Group_365" data-name="Group 365" transform="translate(-119 -752)">
    <g id="Group_249" data-name="Group 249">
      <path id="Path_97" data-name="Path 97" d="M37,0A37,37,0,1,1,0,37,37,37,0,0,1,37,0Z" transform="translate(119 752)" fill="#fff"/>
      <path id="Path_96" data-name="Path 96" d="M31.385,24.508A23.045,23.045,0,0,1,26.3,23.24a2.408,2.408,0,0,0-2.507.479l-3.776,2.27A28.633,28.633,0,0,1,9.6,15.421a.814.814,0,0,1,.142-.983l2.194-2.2a2.666,2.666,0,0,0,.585-2.8A23.108,23.108,0,0,1,11.264,4.4,2.62,2.62,0,0,0,8.725,2.165H3.534a2.513,2.513,0,0,0-1.844.824A2.642,2.642,0,0,0,1.013,5,33.747,33.747,0,0,0,6.2,19.685,32.673,32.673,0,0,0,16.319,29.822a33.342,33.342,0,0,0,14.489,5.169,2.117,2.117,0,0,0,.223.011,2.482,2.482,0,0,0,1.684-.662,2.65,2.65,0,0,0,.849-1.961V27.192A2.6,2.6,0,0,0,31.385,24.508Z" transform="translate(139.151 770.044)" fill="#5663ff"/>
    </g>
  </g>
</svg>
