<svg xmlns="http://www.w3.org/2000/svg" width="74" height="74" viewBox="0 0 74 74">
  <g id="Group_248" data-name="Group 248" transform="translate(-720 -752)">
    <circle id="Ellipse_36" data-name="Ellipse 36" cx="37" cy="37" r="37" transform="translate(720 752)" fill="#fff"/>
    <g id="Group_247" data-name="Group 247" transform="translate(732.997 767.535)">
      <path id="Path_95" data-name="Path 95" d="M6.206,14.086,13.179,3.094a1.305,1.305,0,0,1,.615-.533,1.329,1.329,0,0,1,1.6.492l6.972,11.032a1.275,1.275,0,0,1-1.394,1.928l-3.814-.9V26.1a18.161,18.161,0,0,1,12.3-5.045h0l-.9-3.855a1.294,1.294,0,0,1,1.928-1.394L41.477,22.78a1.305,1.305,0,0,1,.533.615,1.329,1.329,0,0,1-.492,1.6L30.486,31.967a1.275,1.275,0,0,1-1.928-1.394l.9-3.814a12.652,12.652,0,0,0-12.3,12.632v1.148a.841.841,0,0,1-.861.861H12.317a.841.841,0,0,1-.861-.861V15.111l-3.814.9A1.286,1.286,0,0,1,6.206,14.086Z" fill="#5663ff"/>
    </g>
  </g>
</svg>
