<svg xmlns="http://www.w3.org/2000/svg" width="79.364" height="73.377" viewBox="0 0 79.364 73.377">
  <path id="Path_75" data-name="Path 75" d="M284.8,149.094,250.32,120.361a2.472,2.472,0,0,0-3.12,0l-34.479,28.733a2.472,2.472,0,0,0-.328,3.448,2.545,2.545,0,0,0,3.448.328l6.65-5.5v30.21c0,5.5,4.843,9.933,10.836,9.933h30.785c5.993,0,10.836-9.933,10.836-9.933V147.37l6.65,5.5a2.3,2.3,0,0,0,1.56.575,2.455,2.455,0,0,0,1.888-.9A2.325,2.325,0,0,0,284.8,149.094Zm-41.785,33.33v-17.24a2.419,2.419,0,0,1,2.463-2.463h6.567a2.419,2.419,0,0,1,2.463,2.463v17.24Z" transform="translate(-209.088 -116.886)" fill="none" stroke="#6e7faa" stroke-width="5.5"/>
</svg>
