<svg xmlns="http://www.w3.org/2000/svg" width="58.796" height="67.942" viewBox="0 0 58.796 67.942">
  <g id="Group_227" data-name="Group 227" transform="translate(-849.209 -127.832)">
    <g id="Group_226" data-name="Group 226" transform="translate(849.459 128.082)">
      <path id="Path_77" data-name="Path 77" d="M907.755,175.346a6.735,6.735,0,0,1-6.737,6.726H856.2a6.727,6.727,0,1,1-.009-13.453s0-18.116,0-18.116a22.422,22.422,0,0,1,44.843,0v18.114A6.736,6.736,0,0,1,907.755,175.346Zm-6.729-2.242a4.479,4.479,0,0,1-4.481-4.487V150.5a17.937,17.937,0,0,0-35.874,0v18.114a4.487,4.487,0,0,1-4.482,4.487,2.242,2.242,0,1,0,.009,4.484h44.821a2.242,2.242,0,1,0,.008-4.484Zm-32.509,12.332H873a5.606,5.606,0,0,0,11.211,0H888.7a10.09,10.09,0,0,1-20.18,0Z" transform="translate(-849.459 -128.082)" fill="#6e7faa" stroke="#6e7faa" stroke-miterlimit="10" stroke-width="0.5"/>
    </g>
  </g>
</svg>
